# xmcd
#
# Track frame offsets: 
#        150
#        9707
#        19169
#        26991
#        30954
#        50389
#        61436
#        81762
#        90305
#        109665
#        113190
#
# Disc length: 1679 seconds
#
# Revision: 0
# Processed by: cddbd v1.5.2PL0 Copyright (c) Steve Scherf et al.
# Submitted via: ExactAudioCopy v0.99pb3
#
DISCID=7f068d0b
DTITLE=Poor - ...For What It's Worth
DYEAR=2007
DGENRE=Hip-Hop
TTITLE0=Wake Up (intro)
TTITLE1=Job Blow (remix)
TTITLE2=The Meeting
TTITLE3=Pre-Ejaculation (interlude)
TTITLE4=Sex Sells featuring Mic Jordan
TTITLE5=From Good to Bad to Ugly (interlude)
TTITLE6=Dark Blue featuring Young Aundee
TTITLE7=In All Other Words
TTITLE8=Man Overboard featuring Mel Eligon
TTITLE9=Pool Shark Girlfriend
TTITLE10=[untitled]
EXTD=
EXTT0=
EXTT1=
EXTT2=
EXTT3=
EXTT4=
EXTT5=
EXTT6=
EXTT7=
EXTT8=
EXTT9=
EXTT10=
PLAYORDER=
